<?xml version="1.0" encoding="UTF-8"?><svg id="gorules-symbol-blue" xmlns="http://www.w3.org/2000/svg" viewBox="0 0 1080 1080"><defs><style>.cls-1{fill:#415cf9;}</style></defs><path class="cls-1" d="M540.01,480.02h0c33.14,0,60,26.86,60,60h0c0,33.14-26.86,60-60,60h0c-33.14,0-60-26.86-60-60h0c0-33.14,26.86-60,60-60Z"/><rect class="cls-1" x="480.04" y="239.96" width="120" height="120" transform="translate(-53.93 469.73) rotate(-45)"/><rect class="cls-1" x="480" width="120" height="120"/><rect class="cls-1" x="480.04" y="719.96" width="120" height="120" transform="translate(-393.34 610.31) rotate(-45)"/><rect class="cls-1" x="480" y="960" width="120" height="120"/><rect class="cls-1" x="819.39" y="140.62" width="120" height="120"/><rect class="cls-1" x="140.59" y="819.43" width="120" height="120"/><rect class="cls-1" x="663.66" y="36.52" width="120" height="120" transform="translate(18.15 284.28) rotate(-22.5)"/><rect class="cls-1" x="296.33" y="923.46" width="120" height="120" transform="translate(-349.23 211.22) rotate(-22.5)"/><rect class="cls-1" x="296.29" y="36.55" width="120" height="120" transform="translate(130.74 388.78) rotate(-67.5)"/><rect class="cls-1" x="663.7" y="923.48" width="120" height="120" transform="translate(-461.86 1275.73) rotate(-67.5)"/><rect class="cls-1" x="960" y="479.99" width="120" height="120"/><rect class="cls-1" y="479.99" width="120" height="120"/><rect class="cls-1" x="819.37" y="819.39" width="120" height="120"/><rect class="cls-1" x="140.57" y="140.57" width="120" height="120"/><rect class="cls-1" x="923.48" y="296.33" width="120" height="120" transform="translate(277.91 1128.59) rotate(-67.5)"/><rect class="cls-1" x="36.57" y="663.69" width="120" height="120" transform="translate(-608.99 535.97) rotate(-67.5)"/><rect class="cls-1" x="36.52" y="296.31" width="120" height="120" transform="translate(-129.01 64.06) rotate(-22.5)"/><rect class="cls-1" x="923.46" y="663.66" width="120" height="120" transform="translate(-202.07 431.44) rotate(-22.5)"/><rect class="cls-1" x="649.71" y="310.29" width="120" height="120"/><rect class="cls-1" x="310.29" y="649.73" width="120" height="120"/><rect class="cls-1" x="649.68" y="649.69" width="120" height="120"/><rect class="cls-1" x="310.28" y="310.29" width="120" height="120"/><rect class="cls-1" x="720" y="480.01" width="120" height="120" transform="translate(-153.38 709.71) rotate(-45)"/><rect class="cls-1" x="240" y="479.99" width="120" height="120" transform="translate(-293.96 370.29) rotate(-45)"/></svg>