<?xml version="1.0" encoding="UTF-8"?>
<svg id="Layer_2" data-name="Layer 2" xmlns="http://www.w3.org/2000/svg" xmlns:xlink="http://www.w3.org/1999/xlink" viewBox="0 0 464.03 464.02">
  <defs>
    <style>
      .cls-1 {
        fill: url(#_Безымянный_градиент_29);
        stroke-width: 0px;
      }
    </style>
    <linearGradient id="_Безымянный_градиент_29" data-name="Безымянный градиент 29" x1="1614.41" y1="-1238.62" x2="1614.41" y2="-1592.03" gradientTransform="translate(91.23 2374.34) rotate(-45)" gradientUnits="userSpaceOnUse">
      <stop offset="0" stop-color="#1671d3"/>
      <stop offset="1" stop-color="#34cbf2"/>
    </linearGradient>
  </defs>
  <g id="_Слой_1" data-name="Слой 1">
    <path class="cls-1" d="m451.43,201.51c-8.21-8.14-19.03-12.62-30.47-12.62-7.27,0-14.37,1.92-20.78,5.41l-35.98-35.98c9.09-16.57,6.22-37.74-7.27-51.23-7.95-8.02-19-12.61-30.32-12.61h-.13c-11.54,0-22.38,4.47-30.5,12.6-8.13,8.12-12.6,18.96-12.6,30.51,0,7.36,1.92,14.43,5.39,20.67l-36.07,36.06c-6.28-3.49-13.35-5.42-20.7-5.42-11.5,0-22.33,4.49-30.47,12.63-16.82,16.82-16.84,44.18-.03,60.98,8.12,8.13,18.95,12.6,30.5,12.6,11.54,0,22.37-4.46,30.48-12.57,13.51-13.51,16.38-34.69,7.28-51.3l36-36.01c6.44,3.54,13.57,5.41,20.74,5.41,7.15,0,14.26-1.86,20.67-5.38l36.06,36.06c-7.03,12.88-7.03,28.59,0,41.43l-36.02,36.03c-6.32-3.48-13.41-5.4-20.72-5.4-11.54,0-22.38,4.47-30.5,12.6-8.13,8.12-12.6,18.96-12.6,30.51,0,7.36,1.94,14.45,5.42,20.7l-36.07,36.07c-12.66-6.99-28.84-6.97-41.42-.03l-36.04-36.05c3.48-6.32,5.4-13.4,5.4-20.72,0-11.5-4.49-22.33-12.63-30.47-8.16-8.16-19.02-12.6-30.44-12.6-7.32,0-14.41,1.92-20.72,5.4l-36.09-36.09c7.04-12.84,7.04-28.54,0-41.37l36.09-36.09c6.42,3.52,13.5,5.34,20.59,5.34,11.19,0,22.32-4.28,30.57-12.53,8.14-8.14,12.63-18.96,12.63-30.47,0-7.35-1.93-14.43-5.42-20.7l36.06-36.07c6.25,3.48,13.31,5.4,20.67,5.4,11.54,0,22.38-4.47,30.56-12.66,8.13-8.13,12.61-18.95,12.59-30.45,0-11.51-4.5-22.32-12.65-30.44C254.34,4.49,243.51,0,232.01,0c-11.55,0-22.38,4.47-30.5,12.6-13.48,13.48-16.32,34.66-7.22,51.24l-36.03,36.04c-6.35-3.5-13.42-5.43-20.7-5.43-11.58.04-22.42,4.52-30.53,12.63-8.11,8.1-12.57,18.93-12.57,30.47,0,7.32,1.92,14.4,5.4,20.72l-36.05,36.05c-6.35-3.5-13.42-5.43-20.69-5.43-11.54,0-22.38,4.47-30.5,12.6-16.82,16.82-16.82,44.19,0,61.01,8.25,8.25,19.38,12.54,30.59,12.54,7.1,0,14.19-1.82,20.63-5.35l36.03,36.02c-3.5,6.35-5.43,13.44-5.43,20.76,0,11.51,4.49,22.33,12.63,30.47,8.27,8.28,19.42,12.57,30.61,12.57,7.1,0,14.19-1.83,20.62-5.37l35.97,35.97c-9.11,16.59-6.24,37.79,7.28,51.3,8.12,8.13,18.93,12.6,30.44,12.6,11.54,0,22.38-4.47,30.51-12.6,13.54-13.53,16.4-34.71,7.28-51.24l36-36c6.42,3.52,13.49,5.33,20.57,5.33,11.21,0,22.36-4.29,30.62-12.56,13.48-13.48,16.33-34.65,7.24-51.21l36.04-36.04c6.42,3.52,13.5,5.34,20.59,5.34,11.19,0,22.32-4.28,30.57-12.53,8.14-8.14,12.63-18.97,12.63-30.47,0-11.61-4.48-22.45-12.61-30.52ZM55.46,239.77c-.59.95-1.26,1.8-2.05,2.58-.75.75-1.65,1.48-2.52,2.04-5.72,3.59-13.35,2.74-18.12-2.04-2.76-2.76-4.28-6.44-4.28-10.36,0-3.92,1.52-7.6,4.28-10.36,2.74-2.74,6.42-4.25,10.36-4.25,2.76,0,5.4.78,7.85,2.31.89.55,1.72,1.21,2.48,1.97.77.77,1.44,1.62,2.05,2.6,2.95,4.69,2.94,10.78-.04,15.5ZM221.65,32.75h0c2.74-2.75,6.42-4.26,10.36-4.26,3.95,0,7.54,1.49,10.36,4.32,2.75,2.74,4.27,6.39,4.27,10.28,0,3.89-1.53,7.56-4.31,10.34-2.74,2.74-6.42,4.26-10.36,4.26-2.85,0-5.38-.73-7.75-2.24-.94-.59-1.8-1.26-2.55-2.01-.76-.76-1.43-1.61-2.04-2.59-3.59-5.72-2.75-13.33,2.01-18.09Zm-98.7,104.8c0-3.99,1.46-7.56,4.22-10.33h0c2.75-2.75,6.44-4.27,10.39-4.29,2.77,0,5.4.78,7.86,2.32.89.55,1.71,1.21,2.48,1.97.77.77,1.44,1.63,2.14,2.75,1.42,2.23,2.14,4.77,2.14,7.57,0,3.95-1.48,7.53-4.29,10.33-4.77,4.76-12.35,5.62-18.06,2.04l-.44-.27c-.73-.44-1.46-1.02-2.19-1.74-.75-.75-1.42-1.61-2.06-2.63-1.46-2.31-2.19-4.91-2.19-7.73Zm29.23,188.89c0,2.86-.73,5.41-2.24,7.81-.59.95-1.27,1.81-2.02,2.55-.78.78-1.62,1.44-2.64,2.08-5.68,3.59-13.28,2.72-18.07-2.08-2.8-2.8-4.29-6.37-4.29-10.32,0-2.81.77-5.47,2.32-7.92.48-.78,1.14-1.59,1.97-2.41h0c.77-.78,1.66-1.48,2.64-2.09,2.35-1.48,4.91-2.2,7.82-2.2h.04c3.82,0,7.43,1.51,10.17,4.26,2.8,2.8,4.29,6.37,4.29,10.33Zm67.3,86.88c.66-1.03,1.39-1.95,2.17-2.73h0c.79-.8,1.64-1.47,2.78-2.18,2.23-1.42,4.78-2.14,7.58-2.14,2.74,0,5.37.75,7.6,2.18l.51.32c.69.42,1.44,1.03,2.24,1.83.77.77,1.43,1.61,2.07,2.64,3.57,5.66,2.68,13.25-2.11,18.05-2.74,2.74-6.42,4.26-10.36,4.26-3.95,0-7.51-1.47-10.3-4.26-4.72-4.72-5.66-12.45-2.2-17.96Zm117.33-76.52c-4.71,4.7-12.4,5.65-17.89,2.2-1.04-.66-1.97-1.41-2.76-2.2-.8-.8-1.41-1.56-1.82-2.24l-.32-.52c-1.42-2.23-2.15-4.78-2.15-7.57,0-3.94,1.51-7.62,4.26-10.36,4.72-4.72,12.45-5.61,18.25-1.97.76.47,1.58,1.15,2.44,2,.77.77,1.43,1.61,2.03,2.58,3.59,5.71,2.73,13.31-2.03,18.07Zm-25.38-1.1h0s0,0,0,0h0Zm-69.1-93.31c-2.76,2.76-6.33,4.22-10.33,4.22-3.93,0-7.61-1.51-10.36-4.26-5.69-5.69-5.68-14.97.03-20.69,2.81-2.8,6.38-4.28,10.33-4.28h.01c2.83,0,5.37.74,7.77,2.27.94.59,1.8,1.27,2.55,2.02.78.78,1.52,1.7,2.08,2.56,3.59,5.72,2.72,13.36-2.08,18.16Zm96.45-96.96c-.55.89-1.22,1.72-1.97,2.48-.77.77-1.62,1.44-2.6,2.05-4.69,2.95-10.81,2.91-15.61-.11-.88-.54-1.71-1.21-2.47-1.97-.77-.77-1.45-1.64-2.15-2.76-1.4-2.2-2.11-4.73-2.11-7.54,0-3.93,1.51-7.61,4.26-10.36,2.74-2.74,6.45-4.25,10.44-4.25h.04c3.78,0,7.49,1.55,10.17,4.25,4.78,4.78,5.63,12.44,2.01,18.21Zm96.76,86.6c0,3.89-1.52,7.56-4.29,10.33-4.76,4.76-12.41,5.59-18.18,1.97-.89-.55-1.72-1.21-2.47-1.96-.77-.78-1.52-1.7-2.08-2.57-2.95-4.7-2.92-10.84.08-15.64.54-.88,1.23-1.74,2-2.51.75-.75,1.63-1.45,2.54-2.05,5.71-3.48,13.38-2.65,18.22,2.15,2.7,2.67,4.18,6.33,4.18,10.29Z"/>
  </g>
</svg>